<mxfile host="Electron" agent="Mozilla/5.0 (Windows NT 10.0; Win64; x64) AppleWebKit/537.36 (KHTML, like Gecko) draw.io/24.7.5 Chrome/126.0.6478.183 Electron/31.3.0 Safari/537.36" version="24.7.5">
  <diagram name="Page-1" id="6FaCAtMFzfaiU1zW8s2-">
    <mxGraphModel dx="1577" dy="887" grid="1" gridSize="10" guides="1" tooltips="1" connect="1" arrows="1" fold="1" page="1" pageScale="1" pageWidth="850" pageHeight="1100" math="0" shadow="0">
      <root>
        <mxCell id="0" />
        <mxCell id="1" parent="0" />
        <mxCell id="4y1MD54yS2EpHo2oap4K-14" style="edgeStyle=orthogonalEdgeStyle;rounded=0;orthogonalLoop=1;jettySize=auto;html=1;entryX=0.5;entryY=1;entryDx=0;entryDy=0;" edge="1" parent="1" source="4y1MD54yS2EpHo2oap4K-1" target="4y1MD54yS2EpHo2oap4K-5">
          <mxGeometry relative="1" as="geometry" />
        </mxCell>
        <mxCell id="4y1MD54yS2EpHo2oap4K-15" style="edgeStyle=orthogonalEdgeStyle;rounded=0;orthogonalLoop=1;jettySize=auto;html=1;entryX=0;entryY=0.5;entryDx=0;entryDy=0;" edge="1" parent="1" source="4y1MD54yS2EpHo2oap4K-1" target="4y1MD54yS2EpHo2oap4K-2">
          <mxGeometry relative="1" as="geometry" />
        </mxCell>
        <mxCell id="4y1MD54yS2EpHo2oap4K-16" style="edgeStyle=orthogonalEdgeStyle;rounded=0;orthogonalLoop=1;jettySize=auto;html=1;entryX=0.5;entryY=0;entryDx=0;entryDy=0;" edge="1" parent="1" source="4y1MD54yS2EpHo2oap4K-1" target="4y1MD54yS2EpHo2oap4K-3">
          <mxGeometry relative="1" as="geometry" />
        </mxCell>
        <mxCell id="4y1MD54yS2EpHo2oap4K-1" value="index.html" style="rounded=1;whiteSpace=wrap;html=1;" vertex="1" parent="1">
          <mxGeometry x="360" y="290" width="120" height="60" as="geometry" />
        </mxCell>
        <mxCell id="4y1MD54yS2EpHo2oap4K-18" style="edgeStyle=orthogonalEdgeStyle;rounded=0;orthogonalLoop=1;jettySize=auto;html=1;entryX=0;entryY=0.5;entryDx=0;entryDy=0;" edge="1" parent="1" source="4y1MD54yS2EpHo2oap4K-2" target="4y1MD54yS2EpHo2oap4K-17">
          <mxGeometry relative="1" as="geometry" />
        </mxCell>
        <mxCell id="4y1MD54yS2EpHo2oap4K-2" value="search" style="rounded=1;whiteSpace=wrap;html=1;" vertex="1" parent="1">
          <mxGeometry x="600" y="290" width="120" height="60" as="geometry" />
        </mxCell>
        <mxCell id="4y1MD54yS2EpHo2oap4K-3" value="contact" style="rounded=1;whiteSpace=wrap;html=1;" vertex="1" parent="1">
          <mxGeometry x="360" y="440" width="120" height="60" as="geometry" />
        </mxCell>
        <mxCell id="4y1MD54yS2EpHo2oap4K-9" style="edgeStyle=orthogonalEdgeStyle;rounded=0;orthogonalLoop=1;jettySize=auto;html=1;entryX=0.5;entryY=1;entryDx=0;entryDy=0;" edge="1" parent="1" source="4y1MD54yS2EpHo2oap4K-5" target="4y1MD54yS2EpHo2oap4K-7">
          <mxGeometry relative="1" as="geometry" />
        </mxCell>
        <mxCell id="4y1MD54yS2EpHo2oap4K-13" style="edgeStyle=orthogonalEdgeStyle;rounded=0;orthogonalLoop=1;jettySize=auto;html=1;entryX=0.5;entryY=1;entryDx=0;entryDy=0;" edge="1" parent="1" source="4y1MD54yS2EpHo2oap4K-5" target="4y1MD54yS2EpHo2oap4K-10">
          <mxGeometry relative="1" as="geometry" />
        </mxCell>
        <mxCell id="4y1MD54yS2EpHo2oap4K-5" value="login" style="rounded=1;whiteSpace=wrap;html=1;" vertex="1" parent="1">
          <mxGeometry x="130" y="210" width="100" height="60" as="geometry" />
        </mxCell>
        <mxCell id="4y1MD54yS2EpHo2oap4K-12" style="edgeStyle=orthogonalEdgeStyle;rounded=0;orthogonalLoop=1;jettySize=auto;html=1;entryX=0;entryY=0.5;entryDx=0;entryDy=0;" edge="1" parent="1" source="4y1MD54yS2EpHo2oap4K-7" target="4y1MD54yS2EpHo2oap4K-10">
          <mxGeometry relative="1" as="geometry" />
        </mxCell>
        <mxCell id="4y1MD54yS2EpHo2oap4K-7" value="sign up" style="rounded=1;whiteSpace=wrap;html=1;" vertex="1" parent="1">
          <mxGeometry x="120" y="80" width="120" height="60" as="geometry" />
        </mxCell>
        <mxCell id="4y1MD54yS2EpHo2oap4K-10" value="myAcount" style="rounded=1;whiteSpace=wrap;html=1;" vertex="1" parent="1">
          <mxGeometry x="365" y="80" width="120" height="60" as="geometry" />
        </mxCell>
        <mxCell id="4y1MD54yS2EpHo2oap4K-22" style="edgeStyle=orthogonalEdgeStyle;rounded=0;orthogonalLoop=1;jettySize=auto;html=1;entryX=0.5;entryY=0;entryDx=0;entryDy=0;" edge="1" parent="1" source="4y1MD54yS2EpHo2oap4K-17" target="4y1MD54yS2EpHo2oap4K-19">
          <mxGeometry relative="1" as="geometry" />
        </mxCell>
        <mxCell id="4y1MD54yS2EpHo2oap4K-23" style="edgeStyle=orthogonalEdgeStyle;rounded=0;orthogonalLoop=1;jettySize=auto;html=1;entryX=0.5;entryY=0;entryDx=0;entryDy=0;" edge="1" parent="1" source="4y1MD54yS2EpHo2oap4K-17" target="4y1MD54yS2EpHo2oap4K-21">
          <mxGeometry relative="1" as="geometry" />
        </mxCell>
        <mxCell id="4y1MD54yS2EpHo2oap4K-25" style="edgeStyle=orthogonalEdgeStyle;rounded=0;orthogonalLoop=1;jettySize=auto;html=1;entryX=0.5;entryY=1;entryDx=0;entryDy=0;" edge="1" parent="1" source="4y1MD54yS2EpHo2oap4K-17" target="4y1MD54yS2EpHo2oap4K-24">
          <mxGeometry relative="1" as="geometry" />
        </mxCell>
        <mxCell id="4y1MD54yS2EpHo2oap4K-17" value="search result" style="rounded=1;whiteSpace=wrap;html=1;" vertex="1" parent="1">
          <mxGeometry x="850" y="290" width="120" height="60" as="geometry" />
        </mxCell>
        <mxCell id="4y1MD54yS2EpHo2oap4K-30" style="edgeStyle=orthogonalEdgeStyle;rounded=0;orthogonalLoop=1;jettySize=auto;html=1;entryX=1;entryY=0.5;entryDx=0;entryDy=0;" edge="1" parent="1" source="4y1MD54yS2EpHo2oap4K-19" target="4y1MD54yS2EpHo2oap4K-26">
          <mxGeometry relative="1" as="geometry" />
        </mxCell>
        <mxCell id="4y1MD54yS2EpHo2oap4K-35" style="edgeStyle=orthogonalEdgeStyle;rounded=0;orthogonalLoop=1;jettySize=auto;html=1;entryX=0.5;entryY=0;entryDx=0;entryDy=0;" edge="1" parent="1" source="4y1MD54yS2EpHo2oap4K-19" target="4y1MD54yS2EpHo2oap4K-33">
          <mxGeometry relative="1" as="geometry" />
        </mxCell>
        <mxCell id="4y1MD54yS2EpHo2oap4K-19" value="Salad" style="rounded=1;whiteSpace=wrap;html=1;" vertex="1" parent="1">
          <mxGeometry x="850" y="440" width="120" height="60" as="geometry" />
        </mxCell>
        <mxCell id="4y1MD54yS2EpHo2oap4K-32" style="edgeStyle=orthogonalEdgeStyle;rounded=0;orthogonalLoop=1;jettySize=auto;html=1;entryX=0.5;entryY=0;entryDx=0;entryDy=0;" edge="1" parent="1" source="4y1MD54yS2EpHo2oap4K-21" target="4y1MD54yS2EpHo2oap4K-31">
          <mxGeometry relative="1" as="geometry" />
        </mxCell>
        <mxCell id="4y1MD54yS2EpHo2oap4K-36" style="edgeStyle=orthogonalEdgeStyle;rounded=0;orthogonalLoop=1;jettySize=auto;html=1;entryX=0;entryY=0.5;entryDx=0;entryDy=0;" edge="1" parent="1" source="4y1MD54yS2EpHo2oap4K-21" target="4y1MD54yS2EpHo2oap4K-34">
          <mxGeometry relative="1" as="geometry" />
        </mxCell>
        <mxCell id="4y1MD54yS2EpHo2oap4K-21" value="stewed beef" style="rounded=1;whiteSpace=wrap;html=1;" vertex="1" parent="1">
          <mxGeometry x="1020" y="440" width="120" height="60" as="geometry" />
        </mxCell>
        <mxCell id="4y1MD54yS2EpHo2oap4K-24" value="add new" style="rounded=1;whiteSpace=wrap;html=1;" vertex="1" parent="1">
          <mxGeometry x="850" y="130" width="120" height="60" as="geometry" />
        </mxCell>
        <mxCell id="4y1MD54yS2EpHo2oap4K-26" value="update" style="rounded=1;whiteSpace=wrap;html=1;" vertex="1" parent="1">
          <mxGeometry x="620" y="440" width="120" height="60" as="geometry" />
        </mxCell>
        <mxCell id="4y1MD54yS2EpHo2oap4K-31" value="update" style="rounded=1;whiteSpace=wrap;html=1;" vertex="1" parent="1">
          <mxGeometry x="1020" y="560" width="120" height="60" as="geometry" />
        </mxCell>
        <mxCell id="4y1MD54yS2EpHo2oap4K-33" value="delete" style="rounded=1;whiteSpace=wrap;html=1;" vertex="1" parent="1">
          <mxGeometry x="850" y="560" width="120" height="60" as="geometry" />
        </mxCell>
        <mxCell id="4y1MD54yS2EpHo2oap4K-34" value="delete" style="rounded=1;whiteSpace=wrap;html=1;" vertex="1" parent="1">
          <mxGeometry x="1215" y="440" width="120" height="60" as="geometry" />
        </mxCell>
      </root>
    </mxGraphModel>
  </diagram>
</mxfile>
